<svg width="616" height="158" viewBox="0 0 616 158" fill="none" xmlns="http://www.w3.org/2000/svg">
<g clip-path="url(#clip0_104_7)">
<path d="M80.5599 32.1715L68.241 84.4687L96.5094 38.7782C96.7141 38.4473 96.991 38.167 97.3194 37.9583C97.6478 37.7495 98.0191 37.6178 98.4056 37.5728C98.7921 37.5279 99.1838 37.571 99.5513 37.6989C99.9188 37.8268 100.253 38.0361 100.528 38.3112L119.689 57.4722C119.964 57.7474 120.173 58.0812 120.301 58.4487C120.429 58.8162 120.472 59.2078 120.427 59.5944C120.382 59.9809 120.25 60.3522 120.042 60.6806C119.833 61.009 119.553 61.2859 119.222 61.4906L73.5313 89.759L125.829 77.4401C126.207 77.3509 126.601 77.3486 126.981 77.4332C127.361 77.5178 127.717 77.6873 128.022 77.9289C128.327 78.1705 128.573 78.4779 128.743 78.8282C128.912 79.1785 129 79.5626 129 79.9518V107.049C129 107.438 128.912 107.822 128.742 108.172C128.573 108.522 128.327 108.83 128.022 109.071C127.716 109.313 127.361 109.482 126.981 109.567C126.601 109.651 126.207 109.649 125.829 109.56L73.5313 97.241L119.222 125.51C119.553 125.715 119.833 125.992 120.042 126.32C120.25 126.648 120.382 127.02 120.427 127.406C120.472 127.793 120.429 128.184 120.301 128.552C120.173 128.919 119.964 129.253 119.689 129.528L100.528 148.689C100.253 148.964 99.9188 149.173 99.5513 149.301C99.1838 149.429 98.7921 149.472 98.4056 149.427C98.0191 149.382 97.6478 149.25 97.3194 149.042C96.991 148.833 96.7141 148.553 96.5094 148.222L68.241 102.531L80.5599 154.829C80.649 155.207 80.6514 155.601 80.5668 155.981C80.4822 156.361 80.3128 156.716 80.0713 157.022C79.8298 157.327 79.5224 157.573 79.1722 157.742C78.822 157.912 78.4379 158 78.0489 158H50.9511C50.5621 158 50.178 157.912 49.8278 157.742C49.4776 157.573 49.1702 157.327 48.9287 157.022C48.6872 156.716 48.5178 156.361 48.4332 155.981C48.3486 155.601 48.3509 155.207 48.4401 154.829L60.7596 102.531L32.4906 148.222C32.2859 148.553 32.009 148.833 31.6806 149.042C31.3522 149.25 30.9809 149.382 30.5944 149.427C30.2078 149.472 29.8162 149.429 29.4487 149.301C29.0812 149.173 28.7474 148.964 28.4722 148.689L9.31122 129.528C9.03609 129.253 8.82675 128.919 8.69888 128.551C8.57101 128.184 8.52793 127.792 8.57284 127.406C8.61776 127.019 8.74952 126.648 8.95825 126.319C9.16699 125.991 9.4473 125.714 9.7782 125.509L55.4687 97.241L3.17211 109.56C2.79335 109.649 2.3993 109.652 2.01946 109.567C1.63961 109.483 1.28381 109.313 0.978692 109.072C0.673574 108.83 0.427044 108.523 0.257558 108.172C0.0880729 107.822 2.28274e-05 107.438 0 107.049L0 79.9511C4.5745e-05 79.5621 0.0880874 79.178 0.257536 78.8278C0.426985 78.4776 0.673452 78.1702 0.978492 77.9287C1.28353 77.6872 1.63924 77.5178 2.01901 77.4332C2.39877 77.3486 2.79275 77.3509 3.17146 77.4401L55.4687 89.7596L9.7782 61.4899C9.4473 61.2852 9.16699 61.0083 8.95825 60.6799C8.74952 60.3516 8.61776 59.9802 8.57284 59.5937C8.52793 59.2072 8.57101 58.8155 8.69888 58.448C8.82675 58.0806 9.03609 57.7467 9.31122 57.4716L28.4722 38.3106C28.7474 38.0354 29.0812 37.8261 29.4487 37.6982C29.8162 37.5704 30.2078 37.5273 30.5944 37.5722C30.9809 37.6171 31.3522 37.7489 31.6806 37.9576C32.009 38.1663 32.2859 38.4467 32.4906 38.7776L60.759 84.4687L48.4395 32.1721C48.3502 31.7932 48.3477 31.3991 48.4323 31.0191C48.517 30.6392 48.6864 30.2833 48.9281 29.9782C49.1698 29.673 49.4774 29.4265 49.8278 29.2571C50.1783 29.0877 50.5625 28.9998 50.9518 29H78.0495C78.4386 29 78.8226 29.0881 79.1728 29.2575C79.5231 29.427 79.8305 29.6735 80.072 29.9785C80.3135 30.2835 80.4829 30.6392 80.5675 31.019C80.6521 31.3988 80.649 31.7928 80.5599 32.1715ZM64.5 100.872C68.5712 100.872 71.8717 97.5719 71.8717 93.5006C71.8717 89.4294 68.5712 86.1283 64.5 86.1283C60.4288 86.1283 57.1283 89.4288 57.1283 93.5C57.1283 97.5712 60.4288 100.872 64.5 100.872Z" fill="black"/>
</g>
<path d="M197.824 124.104H226.496V141H175.936V51.144H197.824V124.104ZM307.464 69.576V141H285.576V131.272C283.357 134.429 280.328 136.989 276.488 138.952C272.733 140.829 268.552 141.768 263.944 141.768C258.483 141.768 253.661 140.573 249.48 138.184C245.299 135.709 242.056 132.168 239.752 127.56C237.448 122.952 236.296 117.533 236.296 111.304V69.576H258.056V108.36C258.056 113.139 259.293 116.851 261.768 119.496C264.243 122.141 267.571 123.464 271.752 123.464C276.019 123.464 279.389 122.141 281.864 119.496C284.339 116.851 285.576 113.139 285.576 108.36V69.576H307.464ZM414.322 68.808C423.197 68.808 430.237 71.496 435.442 76.872C440.733 82.248 443.378 89.7147 443.378 99.272V141H421.618V102.216C421.618 97.608 420.381 94.0667 417.906 91.592C415.517 89.032 412.189 87.752 407.922 87.752C403.655 87.752 400.285 89.032 397.81 91.592C395.421 94.0667 394.226 97.608 394.226 102.216V141H372.466V102.216C372.466 97.608 371.229 94.0667 368.754 91.592C366.365 89.032 363.037 87.752 358.77 87.752C354.503 87.752 351.133 89.032 348.658 91.592C346.269 94.0667 345.074 97.608 345.074 102.216V141H323.186V69.576H345.074V78.536C347.293 75.5493 350.194 73.2027 353.778 71.496C357.362 69.704 361.415 68.808 365.938 68.808C371.314 68.808 376.093 69.96 380.274 72.264C384.541 74.568 387.869 77.8533 390.258 82.12C392.733 78.1947 396.103 74.9947 400.37 72.52C404.637 70.0453 409.287 68.808 414.322 68.808ZM469.694 62.152C465.854 62.152 462.697 61.0427 460.222 58.824C457.833 56.52 456.638 53.704 456.638 50.376C456.638 46.9627 457.833 44.1467 460.222 41.928C462.697 39.624 465.854 38.472 469.694 38.472C473.449 38.472 476.521 39.624 478.91 41.928C481.385 44.1467 482.622 46.9627 482.622 50.376C482.622 53.704 481.385 56.52 478.91 58.824C476.521 61.0427 473.449 62.152 469.694 62.152ZM480.574 69.576V141H458.686V69.576H480.574Z" fill="black"/>
<defs>
<clipPath id="clip0_104_7">
<rect width="129" height="129" fill="white" transform="translate(0 29)"/>
</clipPath>
</defs>
</svg>
