<?xml version="1.0" encoding="UTF-8" standalone="no"?>
<!DOCTYPE svg PUBLIC "-//W3C//DTD SVG 1.1//EN" "http://www.w3.org/Graphics/SVG/1.1/DTD/svg11.dtd">
<svg xmlns="http://www.w3.org/2000/svg" version="1.1" viewBox="0 0 255 231" width="255.0pt" height="231.0pt">
<path d="M 0.00 0.00 L 255.00 0.00 L 255.00 231.00 L 0.00 231.00 L 0.00 0.00 Z" fill="#f7f7f7" />
<path d="M 79.01 16.15 C 112.29 16.20 145.80 16.13 179.08 16.19 C 182.77 16.16 185.82 18.14 187.59 21.32 C 204.18 50.02 220.81 78.93 237.41 107.61 C 238.86 110.23 240.84 112.87 240.76 116.00 C 240.87 119.24 238.54 122.28 237.03 125.02 C 220.67 153.35 204.31 181.68 187.98 210.03 C 186.87 211.92 185.68 213.63 183.68 214.67 C 181.13 216.17 177.86 215.79 174.99 215.85 C 143.66 215.81 112.33 215.84 81.00 215.83 C 77.68 215.71 73.35 216.39 70.38 214.69 C 68.36 213.66 67.13 211.94 66.02 210.03 C 49.70 181.69 33.32 153.35 16.97 125.02 C 15.46 122.26 13.13 119.25 13.23 116.00 C 13.12 112.77 15.46 109.72 16.97 106.98 C 32.83 79.51 48.70 52.04 64.53 24.55 C 66.18 21.81 67.41 18.84 70.38 17.31 C 72.91 15.84 76.17 16.21 79.01 16.15 Z" fill="#000000" />
<path d="M 117.45 65.70 C 127.15 63.87 137.33 64.85 146.45 68.64 C 158.30 73.49 168.11 82.94 173.45 94.57 C 180.36 109.37 179.59 127.26 171.40 141.39 C 165.42 151.89 155.66 160.14 144.27 164.19 C 131.31 168.90 116.53 168.02 104.22 161.81 C 92.01 155.75 82.46 144.70 78.31 131.70 C 73.44 116.75 75.89 99.82 84.91 86.93 C 92.47 75.95 104.34 68.17 117.45 65.70 Z" fill="#f7f7f7" />
</svg>